<svg width="384" height="400" viewBox="0 0 384 400" fill="none" xmlns="http://www.w3.org/2000/svg">
<path d="M212.7 17.9C195.8 27.7 181.7 35.9 181.4 36.2C181.1 36.5 186.8 56 193.9 79.5C201.1 103 206.8 122.6 206.5 123C206.2 123.5 202 126.1 197.1 128.9L188.3 134L197.4 164C202.4 180.5 206.7 194 207 194C207.8 194 268.3 159.1 269.3 158.1C269.8 157.6 264.5 138.6 257.5 115.9C249.7 90.5 245.2 74 245.7 73.2C246.1 72.5 260 64.2 276.4 54.7C292.8 45.2 306.3 37.1 306.3 36.5C306.3 35.6 245.4 -0.100006 244.1 0C243.8 0.0999908 229.7 8.09999 212.7 17.9Z" fill="#43A5FF"/>
<path d="M85.9 91.2L54.4 109.3L27.5 197.4C12.8 245.9 0.499989 286 0.299989 286.5C-1.07288e-05 287.5 52.4 318.3 54.5 318.3C55.2 318.3 64.9 313 76.1 306.5L96.5 294.7L103.6 298.5C107.6 300.6 111.5 302.9 112.3 303.5C113.1 304.1 117.7 317.4 122.5 333C127.3 348.7 131.5 362.1 131.9 362.8C132.7 364.2 194.2 400.1 194.8 399.5C195.1 399.2 120.2 152.4 118.3 147.4C118.1 146.8 132.1 138 149.5 128C166.9 118 180.8 109.4 180.3 109C179.3 108.2 118.3 73 117.8 73C117.6 73 103.3 81.2 85.9 91.2Z" fill="#43A5FF"/>
<path d="M264.3 260.3C247.1 270.3 233 278.9 233 279.4C233 281.6 239.4 301 240.1 301C240.5 301 244.7 298.7 249.5 295.9C254.2 293.1 258.6 291 259.3 291.3C260 291.6 274.2 299.7 290.9 309.4C307.7 319.1 321.5 326.9 321.6 326.7C321.9 326.4 296.4 243.1 295.9 242.6C295.7 242.4 281.4 250.4 264.3 260.3Z" fill="#43A5FF"/>
<g filter="url(#filter0_i)">
<line x1="305.957" y1="35.7087" x2="382.997" y2="288.696" stroke="#43A5FF" stroke-opacity="0.05" stroke-width="2"/>
</g>
<path d="M194.5 399L118 147.5L180 109.5L207 194L269.5 158L245 74L306 36.5L382.5 289L321.5 326.5L296 242.5L233 279.5L259.5 363L194.5 399Z" fill="white"/>
<defs>
<filter id="filter0_i" x="305" y="35.4174" width="78.9541" height="257.57" filterUnits="userSpaceOnUse" color-interpolation-filters="sRGB">
<feFlood flood-opacity="0" result="BackgroundImageFix"/>
<feBlend mode="normal" in="SourceGraphic" in2="BackgroundImageFix" result="shape"/>
<feColorMatrix in="SourceAlpha" type="matrix" values="0 0 0 0 0 0 0 0 0 0 0 0 0 0 0 0 0 0 127 0" result="hardAlpha"/>
<feOffset dy="4"/>
<feGaussianBlur stdDeviation="2.5"/>
<feComposite in2="hardAlpha" operator="arithmetic" k2="-1" k3="1"/>
<feColorMatrix type="matrix" values="0 0 0 0 0 0 0 0 0 0 0 0 0 0 0 0 0 0 0.12 0"/>
<feBlend mode="normal" in2="shape" result="effect1_innerShadow"/>
</filter>
</defs>
</svg>
