<svg width="500" height="500" viewBox="0 0 500 500" fill="none" xmlns="http://www.w3.org/2000/svg">
<g filter="url(#filter0_d_102_2)">
<path d="M271.401 67.9003C254.501 77.7003 240.401 85.9003 240.101 86.2003C239.801 86.5003 245.501 106 252.601 129.5C259.801 153 265.501 172.6 265.201 173C264.901 173.5 260.701 176.1 255.801 178.9L246.5 184L256.101 214C261.101 230.5 265.401 244 265.701 244C266.501 244 327.001 209.1 328.001 208.1C328.501 207.6 323.201 188.6 316.201 165.9C311.839 151.696 308.666 140.228 306.5 133C304.792 127.303 303.58 124.353 303.8 124C304.052 123.559 310.5 120 318.5 115C323.322 112.14 329.041 108.211 335.101 104.7C351.501 95.2003 363.7 87.0001 364.7 86.5001C364.7 85.6001 304.101 49.9003 302.801 50.0003C302.501 50.1003 288.401 58.1003 271.401 67.9003Z" stroke="white" stroke-width="12"/>
<path d="M144.6 141.2L113.1 159.3L86.2 247.4C71.5 295.9 59.2 336 59 336.5C58.7 337.5 111.1 368.3 113.2 368.3C113.9 368.3 123.6 363 134.8 356.5L155.2 344.7L162.3 348.5C166.3 350.6 170.2 352.9 171 353.5C171.8 354.1 176.4 367.4 181.2 383C186 398.7 190.2 412.1 190.6 412.8C191.4 414.2 252.9 450.1 253.5 449.5C253.8 449.2 178.9 202.4 177 197.4C176.937 197.21 178.479 196.51 181 195C186.43 191.747 196.794 185.512 208.2 178C225.6 168 239 159.5 238.5 159.5C238 159 177 123 176.5 123C176.3 123 162 131.2 144.6 141.2Z" stroke="white" stroke-width="12"/>
<path d="M323.001 310.3C305.801 320.3 291.701 328.9 291.701 329.4C291.701 331.6 298.101 351 298.801 351C299.201 351 303.401 348.7 308.201 345.9C312.901 343.1 317.301 341 318.001 341.3C318.701 341.6 332.901 349.7 349.601 359.4C366.401 369.1 380.201 376.9 380.301 376.7C380.601 376.4 355.101 293.1 354.601 292.6C354.401 292.4 340.101 300.4 323.001 310.3Z" stroke="white" stroke-width="12"/>
<path d="M253.201 449L176.701 197.5L238.701 159.5L265.701 244L328.201 208L303.701 124L364.701 86.5002L441.201 339L380.201 376.5L354.701 292.5L291.701 329.5L318.201 413L253.201 449Z" stroke="white" stroke-width="12"/>
</g>
<defs>
<filter id="filter0_d_102_2" x="48.9982" y="44.0003" width="403.287" height="421.842" filterUnits="userSpaceOnUse" color-interpolation-filters="sRGB">
<feFlood flood-opacity="0" result="BackgroundImageFix"/>
<feColorMatrix in="SourceAlpha" type="matrix" values="0 0 0 0 0 0 0 0 0 0 0 0 0 0 0 0 0 0 127 0" result="hardAlpha"/>
<feOffset dy="4"/>
<feGaussianBlur stdDeviation="2"/>
<feComposite in2="hardAlpha" operator="out"/>
<feColorMatrix type="matrix" values="0 0 0 0 0 0 0 0 0 0 0 0 0 0 0 0 0 0 0.25 0"/>
<feBlend mode="normal" in2="BackgroundImageFix" result="effect1_dropShadow_102_2"/>
<feBlend mode="normal" in="SourceGraphic" in2="effect1_dropShadow_102_2" result="shape"/>
</filter>
</defs>
</svg>
