<svg width="384" height="400" viewBox="0 0 384 400" fill="none" xmlns="http://www.w3.org/2000/svg">
<rect width="384" height="400" fill="#E5E5E5"/>
<g filter="url(#filter0_d_0_1)">
<path d="M198.794 130.637L198.778 130.646L198.763 130.654L190.907 134.961L200.006 163.391L200.011 163.405L200.015 163.42C202.514 171.664 204.835 179.154 206.569 184.579C207.436 187.294 208.153 189.48 208.669 190.983C208.697 191.063 208.723 191.14 208.749 191.215C209.009 191.074 209.293 190.918 209.601 190.748C211.323 189.797 213.748 188.434 216.646 186.792C222.44 183.507 230.105 179.116 237.777 174.693C245.45 170.269 253.127 165.815 258.947 162.406C261.857 160.701 264.299 159.259 266.042 158.215C266.803 157.758 267.425 157.381 267.892 157.092C267.786 156.56 267.625 155.848 267.409 154.96C266.881 152.787 266.054 149.681 264.988 145.864C262.856 138.235 259.786 127.828 256.29 116.49L256.289 116.487C253.473 107.315 251.136 99.23 249.257 92.7293C248.231 89.1775 247.341 86.0988 246.584 83.5743C245.882 81.2318 245.267 79.3649 244.795 77.9349C244.699 77.6448 244.61 77.3726 244.526 77.1182C244.285 76.3805 244.082 75.745 243.955 75.2635C243.893 75.0286 243.83 74.7589 243.798 74.4979C243.782 74.3682 243.765 74.1792 243.78 73.9644C243.792 73.7838 243.836 73.3686 244.104 72.9401C244.313 72.6053 244.586 72.3861 244.645 72.339L244.653 72.3328C244.776 72.2321 244.912 72.134 245.039 72.0463C245.297 71.8677 245.636 71.6518 246.025 71.4105C246.809 70.9247 247.907 70.2715 249.223 69.4899L249.532 69.3067C252.145 67.7551 255.615 65.6949 259.44 63.3041L259.46 63.2917L259.48 63.2798C261.564 62.0436 263.821 60.6031 266.239 59.0603C266.576 58.8447 266.917 58.6271 267.261 58.4077C270.053 56.6281 273.029 54.7481 276.099 52.9697C284.27 48.2365 291.397 43.8257 296.608 40.5342C298.99 39.0296 300.97 37.7596 302.471 36.7977L302.88 36.5351C302.951 36.4897 303.021 36.445 303.089 36.4011C303.065 36.3854 303.04 36.3696 303.016 36.3538C301.375 35.3039 299.018 33.8451 296.171 32.1114C290.481 28.6464 282.874 24.1079 275.223 19.5982C267.571 15.0885 259.883 10.6123 254.03 7.27164C251.102 5.60033 248.642 4.21858 246.879 3.26019C246.045 2.80675 245.382 2.45622 244.904 2.21666C244.471 2.45674 243.878 2.78856 243.14 3.20416C241.514 4.11911 239.196 5.43297 236.353 7.05093C230.669 10.2865 222.898 14.7345 214.401 19.6326C205.952 24.5317 198.206 29.0296 192.535 32.3401C189.698 33.9959 187.383 35.3527 185.761 36.3134C185.188 36.6526 184.704 36.9408 184.316 37.1744C184.448 37.7126 184.63 38.4126 184.86 39.2673C185.459 41.4863 186.361 44.6719 187.497 48.5936C189.769 56.4324 192.966 67.1729 196.515 78.9181C200.116 90.6728 203.344 101.456 205.635 109.356C206.78 113.304 207.694 116.541 208.304 118.823C208.608 119.96 208.842 120.879 208.991 121.536C209.065 121.859 209.126 122.154 209.164 122.392C209.182 122.505 209.203 122.658 209.21 122.818C209.213 122.894 209.217 123.031 209.198 123.194L209.197 123.201C209.188 123.283 209.148 123.643 208.916 124.029C208.762 124.287 208.578 124.471 208.496 124.551C208.389 124.655 208.276 124.751 208.173 124.835C207.966 125.003 207.714 125.188 207.44 125.379C206.887 125.765 206.148 126.245 205.286 126.784C203.557 127.865 201.258 129.229 198.794 130.637ZM209.403 192.982C209.408 192.991 209.408 192.99 209.403 192.981C209.403 192.981 209.403 192.982 209.403 192.982ZM245.642 1.81409C245.642 1.81421 245.642 1.81433 245.641 1.81445C245.677 1.79756 245.684 1.79271 245.642 1.81409ZM183.298 37.8001C183.267 37.8217 183.275 37.818 183.306 37.7951C183.303 37.7972 183.3 37.7989 183.298 37.8001Z" stroke="white" stroke-width="4"/>
<path d="M186.513 392.473C188.789 393.755 190.769 394.856 192.345 395.713C191.852 394.037 191.219 391.902 190.46 389.358C188.438 382.574 185.53 372.891 182.026 361.263C175.017 338.007 165.623 306.974 156.161 275.793C146.699 244.613 137.168 213.286 129.884 189.442C122.578 165.525 117.574 149.278 117.13 148.11L117.116 148.072L117.103 148.032C116.86 147.304 117.093 146.699 117.239 146.423C117.385 146.147 117.562 145.962 117.649 145.877C117.832 145.697 118.028 145.563 118.14 145.49C118.388 145.325 118.72 145.137 119.055 144.949C119.183 144.878 119.32 144.801 119.466 144.72C120.128 144.353 120.966 143.887 121.972 143.284C127.397 140.034 137.731 133.818 149.1 126.33L149.151 126.296L149.203 126.266C157.885 121.277 165.567 116.663 171.011 113.299C173.456 111.788 175.444 110.533 176.865 109.612C176.805 109.576 176.744 109.539 176.682 109.502C174.97 108.473 172.548 107.027 169.65 105.305C163.856 101.861 156.171 97.3159 148.484 92.7855C140.798 88.2549 133.113 83.7409 127.32 80.3602C124.423 78.6695 122.002 77.2642 120.292 76.2824C119.55 75.8569 118.947 75.5138 118.499 75.2625C118.083 75.4922 117.534 75.7998 116.86 76.1797C115.225 77.1017 112.879 78.4369 109.992 80.0865C104.22 83.3851 96.2967 87.934 87.5966 92.934L86.6 91.2L87.5964 92.9341L56.7819 110.64L30.114 197.98C22.7635 222.232 16.013 244.383 11.0751 260.535C8.60617 268.61 6.59019 275.187 5.17882 279.775C4.47319 282.07 3.91837 283.868 3.53353 285.109C3.4503 285.378 3.37492 285.621 3.30759 285.837C3.57189 286.022 3.89116 286.24 4.2653 286.489C5.6445 287.407 7.65177 288.678 10.0978 290.189C14.9838 293.207 21.5576 297.142 28.2128 301.05C34.8679 304.959 41.5917 308.832 46.7776 311.725C49.3729 313.173 51.5692 314.368 53.1742 315.198C53.9797 315.614 54.6143 315.927 55.0665 316.132C55.1041 316.149 55.1398 316.165 55.1734 316.18C55.4746 316.042 55.8813 315.844 56.3924 315.586C57.5477 315.001 59.1546 314.147 61.1036 313.082C64.9973 310.955 70.2069 308.014 75.7961 304.77L75.7986 304.769L96.1986 292.969L97.1622 292.411L98.1438 292.937L105.23 296.729C105.232 296.73 105.234 296.732 105.237 296.733C109.216 298.823 113.253 301.19 114.2 301.9C114.598 302.198 114.836 302.606 114.911 302.734L114.918 302.746C115.042 302.956 115.164 303.2 115.282 303.451C115.52 303.96 115.803 304.635 116.118 305.437C116.751 307.05 117.562 309.286 118.49 311.971C120.349 317.348 122.707 324.596 125.112 332.412L125.113 332.415C127.512 340.262 129.76 347.532 131.458 352.924C132.307 355.622 133.017 357.844 133.538 359.433C133.799 360.228 134.01 360.856 134.166 361.302C134.205 361.413 134.24 361.511 134.27 361.595C134.35 361.652 134.448 361.721 134.564 361.801C135.028 362.119 135.705 362.561 136.578 363.114C138.319 364.217 140.775 365.723 143.715 367.497C149.591 371.043 157.363 375.638 165.133 380.173C172.903 384.707 180.663 389.177 186.513 392.473ZM55.6163 316.356C55.6154 316.355 55.6016 316.35 55.5771 316.344C55.605 316.354 55.6173 316.357 55.6163 316.356Z" stroke="white" stroke-width="4"/>
<path d="M314.196 320.021C316.122 321.107 317.792 322.042 319.155 322.796C318.503 320.561 317.617 317.58 316.567 314.078C314.212 306.223 311.038 295.771 307.839 285.31C304.639 274.85 301.415 264.384 298.961 256.505C297.733 252.564 296.699 249.274 295.957 246.955C295.767 246.361 295.596 245.833 295.447 245.376C295.284 245.462 295.111 245.554 294.929 245.652C293.309 246.52 290.981 247.804 288.116 249.408C282.389 252.614 274.548 257.084 266.004 262.031C257.414 267.025 249.602 271.667 243.943 275.12C241.111 276.848 238.83 278.271 237.262 279.289C236.686 279.663 236.218 279.975 235.86 280.222C235.879 280.307 235.9 280.398 235.923 280.497C236.09 281.196 236.333 282.101 236.635 283.152C237.236 285.248 238.05 287.854 238.888 290.4C239.727 292.947 240.583 295.412 241.268 297.229C241.429 297.656 241.578 298.04 241.713 298.377C242.061 298.194 242.457 297.982 242.895 297.743C244.571 296.832 246.8 295.569 249.186 294.177C251.573 292.756 253.903 291.5 255.748 290.629C256.665 290.196 257.505 289.838 258.193 289.605C258.532 289.49 258.889 289.386 259.229 289.327C259.449 289.288 260.116 289.174 260.789 289.462C260.993 289.55 261.408 289.776 261.841 290.015C262.337 290.289 263.021 290.671 263.868 291.149C265.564 292.105 267.93 293.451 270.794 295.089C276.523 298.366 284.251 302.818 292.604 307.67C300.999 312.517 308.642 316.888 314.196 320.021ZM235.164 280.733C235.164 280.733 235.166 280.732 235.169 280.729C235.165 280.732 235.164 280.733 235.164 280.733ZM242.323 299.755C242.329 299.765 242.329 299.764 242.322 299.754C242.322 299.755 242.322 299.755 242.323 299.755Z" stroke="white" stroke-width="4"/>
<path d="M121.065 148.397L179.572 112.538L205.796 194.609L206.551 196.971L208.7 195.733L271.2 159.733L272.561 158.949L272.121 157.44L248.049 74.905L305.539 39.5623L380.84 288.104L323.362 323.439L298.615 241.919L297.878 239.49L295.688 240.776L232.688 277.776L231.312 278.584L231.795 280.105L257.8 362.044L196.395 396.053L121.065 148.397Z" stroke="white" stroke-width="4"/>
</g>
<defs>
<filter id="filter0_d_0_1" x="-3.00128" y="0.00012207" width="390.203" height="407.507" filterUnits="userSpaceOnUse" color-interpolation-filters="sRGB">
<feFlood flood-opacity="0" result="BackgroundImageFix"/>
<feColorMatrix in="SourceAlpha" type="matrix" values="0 0 0 0 0 0 0 0 0 0 0 0 0 0 0 0 0 0 127 0" result="hardAlpha"/>
<feOffset dy="4"/>
<feGaussianBlur stdDeviation="2"/>
<feComposite in2="hardAlpha" operator="out"/>
<feColorMatrix type="matrix" values="0 0 0 0 0 0 0 0 0 0 0 0 0 0 0 0 0 0 0.25 0"/>
<feBlend mode="normal" in2="BackgroundImageFix" result="effect1_dropShadow_0_1"/>
<feBlend mode="normal" in="SourceGraphic" in2="effect1_dropShadow_0_1" result="shape"/>
</filter>
</defs>
</svg>
