<svg width="501" height="500" viewBox="0 0 501 500" fill="none" xmlns="http://www.w3.org/2000/svg">
<path d="M240.103 86.2002C240.403 85.9002 254.503 77.7002 271.403 67.9002C288.403 58.1002 302.503 50.1002 302.803 50.0002C304.103 49.9002 364.701 85.5999 364.701 86.4999C363.701 86.9999 351.503 95.2002 335.103 104.7C329.042 108.211 323.324 112.14 318.501 115C310.501 120 304.054 123.559 303.801 124M240.103 86.2002C239.803 86.5002 245.503 106 252.603 129.5C259.803 153 265.503 172.6 265.203 173C264.903 173.5 260.703 176.1 255.803 178.9L246.501 184L256.103 214C261.103 230.5 265.403 244 265.703 244C266.503 244 327.003 209.1 328.003 208.1C328.503 207.6 323.203 188.6 316.203 165.9C311.841 151.696 308.668 140.228 306.501 133C304.794 127.303 303.581 124.353 303.801 124M240.103 86.2002L303.801 124" stroke="#43A5FF" stroke-width="12"/>
<path d="M113.101 159.3L144.601 141.2C162.001 131.2 176.301 123 176.501 123C177.001 123 238.001 159 238.501 159.5C239.001 159.5 225.601 168 208.201 178C196.795 185.512 186.431 191.747 181.001 195C178.481 196.51 176.938 197.21 177.001 197.4M113.101 159.3L86.2013 247.4C71.5013 295.9 59.2013 336 59.0013 336.5C58.7013 337.5 111.101 368.3 113.201 368.3C113.901 368.3 123.601 363 134.801 356.5L155.201 344.7L162.301 348.5C166.301 350.6 170.201 352.9 171.001 353.5C171.801 354.1 176.401 367.4 181.201 383C186.001 398.7 190.201 412.1 190.601 412.8C191.401 414.2 252.901 450.1 253.501 449.5C253.801 449.2 178.901 202.4 177.001 197.4M113.101 159.3L177.001 197.4" stroke="#43A5FF" stroke-width="12"/>
<path d="M323.003 310.3C305.803 320.3 291.703 328.9 291.703 329.4C291.703 331.6 298.103 351 298.803 351C299.203 351 303.403 348.7 308.203 345.9C312.903 343.1 317.303 341 318.003 341.3C318.703 341.6 332.903 349.7 349.603 359.4C366.403 369.1 380.203 376.9 380.303 376.7C380.603 376.4 355.103 293.1 354.603 292.6C354.403 292.4 340.103 300.4 323.003 310.3Z" stroke="#43A5FF" stroke-width="12"/>
<path d="M253.203 449L176.703 197.5L238.703 159.5L265.703 244L328.203 208L303.703 124L364.703 86.5002L441.203 339L380.203 376.5L354.703 292.5L291.703 329.5L318.203 413L253.203 449Z" stroke="#43A5FF" stroke-width="12"/>
</svg>
